<svg width="86" height="197" viewBox="0 0 86 197" fill="none" xmlns="http://www.w3.org/2000/svg">
<path d="M8.34713 123.057C13.1026 112.165 24.0504 105.303 35.9258 105.772L41.56 105.994L52.2768 105.662C65.006 105.266 76.4696 113.317 80.4191 125.424C83.9796 136.339 84.181 148.072 80.9971 159.103L75.6609 177.59L70.749 190.885C70.5629 191.389 70.4676 191.921 70.4676 192.459C70.4676 194.967 68.4344 197 65.9264 197H21.1416C17.6357 197 14.7937 194.158 14.7937 190.652C14.7937 189.894 14.6578 189.141 14.3925 188.431L9.99572 176.657L5.80794 162.211C2.05485 149.263 2.95321 135.411 8.34713 123.057Z" fill="#91B0AE"/>
<rect x="33.1506" y="83.5107" width="17.1304" height="34.2609" rx="8.56522" fill="#91B0AE"/>
<rect x="30.8535" y="83.5107" width="21.413" height="4.28261" rx="2.1413" fill="#91B0AE"/>
<rect x="31.0095" y="87.7935" width="21.413" height="4.28261" rx="2.1413" fill="#91B0AE"/>
<path d="M50.2815 107.065C51.7501 107.065 53.2031 106.854 54.55 106.444C55.8969 106.034 57.1089 105.434 58.1107 104.683C59.1125 103.931 59.8826 103.043 60.3731 102.074C60.8637 101.105 61.0642 100.075 60.9621 99.0498C60.8601 98.0242 60.4577 97.0243 59.78 96.1122C59.1023 95.2001 58.1638 94.3954 57.0228 93.7481C55.8818 93.1008 54.5628 92.6247 53.1477 92.3495C51.7326 92.0743 50.2518 92.0058 48.7973 92.1483L49.3501 94.9128C50.2629 94.8234 51.1921 94.8663 52.0801 95.039C52.9681 95.2118 53.7959 95.5105 54.5119 95.9167C55.2279 96.3229 55.8169 96.8279 56.2421 97.4003C56.6674 97.9726 56.9199 98.6001 56.984 99.2437C57.048 99.8873 56.9222 100.533 56.6144 101.141C56.3065 101.749 55.8233 102.307 55.1946 102.778C54.5659 103.25 53.8054 103.626 52.9601 103.884C52.1149 104.141 51.2031 104.274 50.2815 104.274V107.065Z" fill="#91B0AE"/>
<circle cx="38.5504" cy="55.6739" r="15.9068" fill="#91B0AE"/>
<circle cx="62.4108" cy="23.8603" r="11.9301" fill="#91B0AE"/>
<circle cx="30.597" cy="7.95341" r="7.95341" fill="#91B0AE"/>
<rect x="33.1506" y="83.5107" width="17.1304" height="34.2609" rx="8.56522" fill="#91B0AE"/>
<rect x="31.0095" y="87.7935" width="21.413" height="4.28261" rx="2.1413" fill="#91B0AE"/>
<path d="M50.2815 107.065C51.7501 107.065 53.2031 106.854 54.55 106.444C55.8969 106.034 57.1089 105.434 58.1107 104.683C59.1125 103.931 59.8826 103.043 60.3731 102.074C60.8637 101.105 61.0642 100.075 60.9621 99.0498C60.8601 98.0242 60.4577 97.0243 59.78 96.1122C59.1023 95.2001 58.1638 94.3954 57.0228 93.7481C55.8818 93.1008 54.5628 92.6247 53.1477 92.3495C51.7326 92.0743 50.2518 92.0058 48.7973 92.1483L49.3501 94.9128C50.2629 94.8234 51.1921 94.8663 52.0801 95.039C52.9681 95.2118 53.7959 95.5105 54.5119 95.9167C55.2279 96.3229 55.8169 96.8279 56.2421 97.4003C56.6674 97.9726 56.9199 98.6001 56.984 99.2437C57.048 99.8873 56.9222 100.533 56.6144 101.141C56.3065 101.749 55.8233 102.307 55.1946 102.778C54.5659 103.25 53.8054 103.626 52.9601 103.884C52.1149 104.141 51.2031 104.274 50.2815 104.274V107.065Z" fill="#91B0AE"/>
<circle cx="38.5504" cy="55.6739" r="15.9068" fill="#91B0AE"/>
<circle cx="62.4108" cy="23.8603" r="11.9301" fill="#91B0AE"/>
<circle cx="30.597" cy="7.95341" r="7.95341" fill="#91B0AE"/>
</svg>
