<svg width="129" height="297" viewBox="0 0 195 448" fill="none" xmlns="http://www.w3.org/2000/svg">
<path d="M23.1911 269.695C31.4324 250.82 50.4052 238.929 70.9856 239.741L94.363 240.663L130 239.557C152.202 238.868 172.198 252.909 179.086 274.027L185.469 293.595C191.68 312.633 192.031 333.098 186.478 352.338L171.79 403.224L160.638 433.409C160.215 434.553 159.999 435.763 159.999 436.983V436.983C159.999 442.677 155.382 447.294 149.688 447.294H48.0026C40.0424 447.294 33.5894 440.841 33.5894 432.881V432.881C33.5894 431.159 33.2809 429.451 32.6786 427.838L22.6956 401.106L10.0653 357.534C3.56109 335.096 5.11798 311.089 14.4658 289.68L23.1911 269.695Z" fill="#23786e"/>
<rect x="75.2698" y="189.614" width="38.8951" height="77.7902" rx="19.4476" fill="#23786e"/>
<rect x="70.0535" y="189.614" width="48.6189" height="9.72378" rx="4.86189" fill="#23786e"/>
<rect x="70.408" y="199.337" width="48.6189" height="9.72378" rx="4.86189" fill="#23786e"/>
<path d="M114.165 243.094C117.5 243.094 120.799 242.614 123.857 241.683C126.915 240.753 129.667 239.392 131.942 237.685C134.216 235.978 135.965 233.961 137.079 231.761C138.193 229.561 138.648 227.224 138.416 224.895C138.184 222.567 137.271 220.296 135.732 218.226C134.193 216.155 132.062 214.327 129.472 212.858C126.881 211.388 123.886 210.307 120.673 209.682C117.46 209.057 114.098 208.902 110.796 209.225L112.051 215.502C114.123 215.299 116.233 215.397 118.249 215.789C120.266 216.181 122.145 216.859 123.771 217.782C125.396 218.704 126.734 219.851 127.699 221.15C128.665 222.45 129.238 223.874 129.384 225.336C129.529 226.797 129.243 228.264 128.544 229.644C127.845 231.025 126.748 232.29 125.321 233.361C123.893 234.433 122.166 235.287 120.247 235.871C118.328 236.455 116.258 236.756 114.165 236.756L114.165 243.094Z" fill="#23786e"/>
<circle class="bubble-btm" cx="87.5297" cy="126.409" r="36.1169" fill="#23786e"/>
<circle class="bubble-mid" cx="141.705" cy="54.1755" r="27.0877" fill="#23786e"/>
<circle class="bubble-top" cx="69.4713" cy="18.0584" r="18.0584" fill="#23786e"/>
<rect x="75.2698" y="189.614" width="38.8951" height="77.7902" rx="19.4476" fill="#23786e"/>
<rect x="70.408" y="199.337" width="48.6189" height="9.72378" rx="4.86189" fill="#23786e"/>
<path d="M114.165 243.094C117.5 243.094 120.799 242.614 123.857 241.683C126.915 240.753 129.667 239.392 131.942 237.685C134.216 235.978 135.965 233.961 137.079 231.761C138.193 229.561 138.648 227.224 138.416 224.895C138.184 222.567 137.271 220.296 135.732 218.226C134.193 216.155 132.062 214.327 129.472 212.858C126.881 211.388 123.886 210.307 120.673 209.682C117.46 209.057 114.098 208.902 110.796 209.225L112.051 215.502C114.123 215.299 116.233 215.397 118.249 215.789C120.266 216.181 122.145 216.859 123.771 217.782C125.396 218.704 126.734 219.851 127.699 221.15C128.665 222.45 129.238 223.874 129.384 225.336C129.529 226.797 129.243 228.264 128.544 229.644C127.845 231.025 126.748 232.29 125.321 233.361C123.893 234.433 122.166 235.287 120.247 235.871C118.328 236.455 116.258 236.756 114.165 236.756L114.165 243.094Z" fill="#23786e"/>
<style>
    .bubble-top {
        animation: bubble-top 3s 0s infinite linear;
    }

    .bubble-mid {
        animation: bubble-mid 3s infinite linear;
    }

    .bubble-btm {
        animation: bubble-btm 3s infinite linear;
    }

    @keyframes bubble-top {
        0% {
            cx: 90;
            cy: 70;
            r: 10;
        }
        100% {
            cx: 70;
            cy: 50;
            r: 0;
        }
    }


    @keyframes bubble-mid {
        0% {
            cx: 140;
            cy: 120;
            r: 27;
        }
        100% {
            cx: 90;
            cy: 70;
            r: 10;
        }
    }

    @keyframes bubble-btm {
        0% {
            cx: 90;
            cy: 190;
            r: 15;
        }
        100% {
            cx: 140;
            cy: 120;
            r: 27;
        }
    }
</style>
</svg>
